<?xml version="1.0" encoding="UTF-8"?>
<svg xmlns="http://www.w3.org/2000/svg" version="1.1" viewBox="0 0 541.3 42.7">
  <!-- Generator: Adobe Illustrator 29.0.1, SVG Export Plug-In . SVG Version: 2.1.0 Build 192)  -->
  <defs>
    <style>
      .st0, .st1, .st2, .st3 {
        fill: none;
      }

      .st4 {
        fill: #335189;
      }

      .st5 {
        fill: #1b998b;
      }

      .st6 {
        fill: #900;
      }

      .st7 {
        fill: #ff9200;
      }

      .st1 {
        stroke: #939598;
        stroke-width: 5px;
      }

      .st1, .st2, .st3 {
        stroke-miterlimit: 10;
      }

      .st8 {
        fill: #c00;
      }

      .st9 {
        fill: #752a86;
      }

      .st10 {
        font-family: ArialMT, Arial;
        font-size: 11px;
      }

      .st11 {
        fill: #f60;
      }

      .st2 {
        stroke: #ccc;
        stroke-width: 2px;
      }

      .st12 {
        fill: #00de60;
      }

      .st13 {
        fill: #662f90;
      }

      .st3 {
        stroke: #752a86;
        stroke-width: 6px;
      }

      .st14 {
        fill: #ac33c7;
      }

      .st15 {
        fill: #fa99ff;
      }

      .st16 {
        fill: #fc9;
      }

      .st17 {
        fill: #0cc;
      }
    </style>
  </defs>
  <g id="Layer_1" color-rendering="auto" image-rendering="auto" shape-rendering="auto" text-rendering="auto">
    <line class="st1" x1="66.5" y1="28.7" x2="531.5" y2="28.7"/>
    <rect class="st4" x="65.3" y="22.5" width="2.4" height="12.4"/>
    <rect class="st12" x="72.8" y="22.5" width="10.4" height="12.4"/>
    <rect class="st15" x="83.2" y="22.5" width="1.2" height="12.4"/>
    <rect class="st4" x="84.4" y="22.5" width="5.4" height="12.4"/>
    <rect class="st17" x="94.7" y="22.5" width=".6" height="12.4"/>
    <rect class="st17" x="95.3" y="22.5" width=".6" height="12.4"/>
    <rect class="st17" x="97.1" y="22.5" width=".6" height="12.4"/>
    <rect class="st17" x="97.7" y="22.5" width=".6" height="12.4"/>
    <rect class="st17" x="97.7" y="22.5" width=".6" height="12.4"/>
    <rect class="st17" x="98.9" y="22.5" width=".6" height="12.4"/>
    <rect class="st17" x="99.5" y="22.5" width="1.8" height="12.4"/>
    <rect class="st14" x="101.9" y="22.5" width=".6" height="12.4"/>
    <rect class="st15" x="102.5" y="22.5" width=".6" height="12.4"/>
    <rect class="st15" x="109.7" y="22.5" width=".6" height="12.4"/>
    <rect class="st17" x="255.5" y="22.5" width=".6" height="12.4"/>
    <rect class="st14" x="258" y="22.5" width=".6" height="12.4"/>
    <rect class="st17" x="259.2" y="22.5" width=".6" height="12.4"/>
    <rect class="st17" x="259.2" y="22.5" width=".6" height="12.4"/>
    <rect class="st17" x="261" y="22.5" width=".6" height="12.4"/>
    <rect class="st4" x="265.2" y="22.5" width="1.8" height="12.4"/>
    <rect class="st15" x="267" y="22.5" width="6" height="12.4"/>
    <rect class="st12" x="273.6" y="22.5" width=".6" height="12.4"/>
    <rect class="st4" x="273.6" y="22.5" width="3" height="12.4"/>
    <rect class="st15" x="279" y="22.5" width=".6" height="12.4"/>
    <rect class="st4" x="279.6" y="22.5" width=".6" height="12.4"/>
    <rect class="st5" x="288.1" y="22.5" width="1.8" height="12.4"/>
    <rect class="st12" x="289.9" y="22.5" width=".6" height="12.4"/>
    <rect class="st4" x="290.5" y="22.5" width="7.2" height="12.4"/>
    <rect class="st17" x="298.3" y="22.5" width=".6" height="12.4"/>
    <rect class="st14" x="298.9" y="22.5" width=".6" height="12.4"/>
    <rect class="st17" x="299.5" y="22.5" width=".6" height="12.4"/>
    <rect class="st17" x="300.1" y="22.5" width=".6" height="12.4"/>
    <rect class="st17" x="300.7" y="22.5" width=".6" height="12.4"/>
    <rect class="st17" x="301.3" y="22.5" width=".6" height="12.4"/>
    <rect class="st4" x="306.2" y="22.5" width="3.6" height="12.4"/>
    <rect class="st15" x="310.4" y="22.5" width=".6" height="12.4"/>
    <rect class="st12" x="310.4" y="22.5" width=".6" height="12.4"/>
    <rect class="st5" x="311" y="22.5" width=".6" height="12.4"/>
    <rect class="st4" x="319.4" y="22.5" width=".6" height="12.4"/>
    <rect class="st4" x="323.6" y="22.5" width="3" height="12.4"/>
    <rect class="st16" x="326.6" y="22.5" width=".6" height="12.4"/>
    <rect class="st11" x="326.6" y="22.5" width="1.8" height="12.4"/>
    <rect class="st16" x="328.4" y="22.5" width=".6" height="12.4"/>
    <rect class="st11" x="329.1" y="22.5" width=".6" height="12.4"/>
    <rect class="st16" x="329.1" y="22.5" width="1.8" height="12.4"/>
    <rect class="st11" x="330.9" y="22.5" width=".6" height="12.4"/>
    <rect class="st16" x="330.9" y="22.5" width="1.8" height="12.4"/>
    <rect class="st11" x="332.7" y="22.5" width=".6" height="12.4"/>
    <rect class="st16" x="332.7" y="22.5" width="1.2" height="12.4"/>
    <rect class="st11" x="333.9" y="22.5" width=".6" height="12.4"/>
    <rect class="st16" x="333.9" y="22.5" width=".6" height="12.4"/>
    <rect class="st4" x="333.9" y="22.5" width="1.2" height="12.4"/>
    <rect class="st16" x="335.1" y="22.5" width="2.4" height="12.4"/>
    <rect class="st4" x="337.5" y="22.5" width=".6" height="12.4"/>
    <rect class="st16" x="337.5" y="22.5" width=".6" height="12.4"/>
    <rect class="st11" x="338.1" y="22.5" width=".6" height="12.4"/>
    <rect class="st16" x="338.7" y="22.5" width="1.2" height="12.4"/>
    <rect class="st15" x="345.3" y="22.5" width=".6" height="12.4"/>
    <rect class="st17" x="345.3" y="22.5" width=".6" height="12.4"/>
    <rect class="st17" x="348.3" y="22.5" width=".6" height="12.4"/>
    <rect class="st15" x="348.3" y="22.5" width=".6" height="12.4"/>
    <rect class="st13" x="349.5" y="22.5" width=".6" height="12.4"/>
    <rect class="st16" x="349.5" y="22.5" width=".6" height="12.4"/>
    <rect class="st11" x="350.1" y="22.5" width=".6" height="12.4"/>
    <rect class="st16" x="350.1" y="22.5" width="2.4" height="12.4"/>
    <rect class="st11" x="352.5" y="22.5" width="1.2" height="12.4"/>
    <rect class="st16" x="353.8" y="22.5" width=".6" height="12.4"/>
    <rect class="st4" x="353.8" y="22.5" width="3.6" height="12.4"/>
    <rect class="st17" x="363.4" y="22.5" width=".6" height="12.4"/>
    <rect class="st17" x="371.8" y="22.5" width="4.8" height="12.4"/>
    <rect class="st17" x="388.7" y="22.5" width=".6" height="12.4"/>
    <rect class="st14" x="388.7" y="22.5" width=".6" height="12.4"/>
    <rect class="st17" x="392.9" y="22.5" width=".6" height="12.4"/>
    <rect class="st15" x="393.5" y="22.5" width=".6" height="12.4"/>
    <rect class="st16" x="398.3" y="22.5" width="1.8" height="12.4"/>
    <rect class="st11" x="400.1" y="22.5" width=".6" height="12.4"/>
    <rect class="st16" x="400.1" y="22.5" width=".6" height="12.4"/>
    <rect class="st4" x="400.8" y="22.5" width=".6" height="12.4"/>
    <rect class="st16" x="401.4" y="22.5" width="2.4" height="12.4"/>
    <rect class="st11" x="403.8" y="22.5" width=".6" height="12.4"/>
    <rect class="st16" x="403.8" y="22.5" width=".6" height="12.4"/>
    <rect class="st4" x="403.8" y="22.5" width=".6" height="12.4"/>
    <rect class="st16" x="404.4" y="22.5" width=".6" height="12.4"/>
    <rect class="st11" x="405" y="22.5" width=".6" height="12.4"/>
    <rect class="st16" x="405" y="22.5" width="1.2" height="12.4"/>
    <rect class="st4" x="406.2" y="22.5" width="3" height="12.4"/>
    <rect class="st16" x="409.2" y="22.5" width="1.2" height="12.4"/>
    <rect class="st11" x="410.4" y="22.5" width=".6" height="12.4"/>
    <rect class="st16" x="410.4" y="22.5" width="1.8" height="12.4"/>
    <rect class="st4" x="412.2" y="22.5" width="3" height="12.4"/>
    <rect class="st5" x="426.7" y="22.5" width=".6" height="12.4"/>
    <rect class="st5" x="435.7" y="22.5" width="1.2" height="12.4"/>
    <rect class="st12" x="437.5" y="22.5" width="16.5" height="12.4"/>
    <rect class="st6" x="454.4" y="22.5" width="75.9" height="12.4"/>
    <rect class="st8" x="530.3" y="22.5" width=".6" height="12.4"/>
    <rect class="st11" x="530.3" y="22.5" width=".6" height="12.4"/>
    <rect class="st16" x="530.9" y="22.5" width=".6" height="12.4"/>
    <rect class="st7" x="530.9" y="22.5" width=".6" height="12.4"/>
    <g>
      <line class="st3" x1="115.8" y1="28.7" x2="246.9" y2="28.7"/>
      <polygon class="st9" points="245.2 34.7 255.5 28.7 245.2 22.7 245.2 34.7"/>
    </g>
    <text class="st10" transform="translate(174.3 22.5)"><tspan x="0" y="0">rDNA</tspan></text>
    <text class="st10" transform="translate(359.6 13.9)"><tspan x="0" y="0">PHR</tspan></text>
    <text class="st10" transform="translate(102 13.9)"><tspan x="0" y="0">DJ</tspan></text>
    <text class="st10" transform="translate(463.3 18)"><tspan x="0" y="0">Centromere</tspan></text>
    <line class="st0" x1="101.6" y1="13.9" x2="115.8" y2="13.9"/>
    <line class="st2" x1="348.6" y1="17.1" x2="393.3" y2="17.1"/>
    <line class="st2" x1="101.3" y1="17.1" x2="115.8" y2="17.1"/>
    <text class="st10" transform="translate(5.4 31.2)"><tspan x="0" y="0">p-Telomere</tspan></text>
  </g>
</svg>